<?xml version="1.0" encoding="UTF-8" standalone="no"?>
<!-- Created with matplotlib (http://matplotlib.org/) -->

<svg
   xmlns:dc="http://purl.org/dc/elements/1.1/"
   xmlns:cc="http://creativecommons.org/ns#"
   xmlns:rdf="http://www.w3.org/1999/02/22-rdf-syntax-ns#"
   xmlns:svg="http://www.w3.org/2000/svg"
   xmlns="http://www.w3.org/2000/svg"
   xmlns:xlink="http://www.w3.org/1999/xlink"
   xmlns:sodipodi="http://sodipodi.sourceforge.net/DTD/sodipodi-0.dtd"
   xmlns:inkscape="http://www.inkscape.org/namespaces/inkscape"
   height="360pt"
   version="1.1"
   viewBox="0 0 360 360"
   width="360pt"
   id="svg2"
   inkscape:version="0.48.4 r9939"
   sodipodi:docname="cs_plot.svg">
  <metadata
     id="metadata443">
    <rdf:RDF>
      <cc:Work
         rdf:about="">
        <dc:format>image/svg+xml</dc:format>
        <dc:type
           rdf:resource="http://purl.org/dc/dcmitype/StillImage" />
      </cc:Work>
    </rdf:RDF>
  </metadata>
  <sodipodi:namedview
     pagecolor="#ffffff"
     bordercolor="#666666"
     borderopacity="1"
     objecttolerance="10"
     gridtolerance="10"
     guidetolerance="10"
     inkscape:pageopacity="0"
     inkscape:pageshadow="2"
     inkscape:window-width="1346"
     inkscape:window-height="1352"
     id="namedview441"
     showgrid="false"
     inkscape:zoom="1.4833529"
     inkscape:cx="196.2284"
     inkscape:cy="228.33253"
     inkscape:window-x="0"
     inkscape:window-y="24"
     inkscape:window-maximized="0"
     inkscape:current-layer="svg2" />
  <defs
     id="defs4">
    <marker
       inkscape:stockid="Arrow1Lstart"
       orient="auto"
       refY="0.0"
       refX="0.0"
       id="Arrow1Lstart"
       style="overflow:visible">
      <path
         id="path4198"
         d="M 0.0,0.0 L 5.0,-5.0 L -12.5,0.0 L 5.0,5.0 L 0.0,0.0 z "
         style="fill-rule:evenodd;stroke:#000000;stroke-width:1.0pt"
         transform="scale(0.8) translate(12.5,0)" />
    </marker>
    <style
       type="text/css"
       id="style6">
*{stroke-linecap:square;stroke-linejoin:round;}
  </style>
    <marker
       inkscape:stockid="Arrow1Lstart"
       orient="auto"
       refY="0"
       refX="0"
       id="Arrow1Lstart-0"
       style="overflow:visible">
      <path
         inkscape:connector-curvature="0"
         id="path4198-7"
         d="M 0,0 5,-5 -12.5,0 5,5 0,0 z"
         style="fill-rule:evenodd;stroke:#000000;stroke-width:1pt"
         transform="matrix(0.8,0,0,0.8,10,0)" />
    </marker>
    <marker
       inkscape:stockid="Arrow1Lstart"
       orient="auto"
       refY="0"
       refX="0"
       id="Arrow1Lstart-8"
       style="overflow:visible">
      <path
         inkscape:connector-curvature="0"
         id="path4198-0"
         d="M 0,0 5,-5 -12.5,0 5,5 0,0 z"
         style="fill-rule:evenodd;stroke:#000000;stroke-width:1pt"
         transform="matrix(0.8,0,0,0.8,10,0)" />
    </marker>
    <marker
       inkscape:stockid="Arrow1Lstart"
       orient="auto"
       refY="0"
       refX="0"
       id="Arrow1Lstart-9"
       style="overflow:visible">
      <path
         inkscape:connector-curvature="0"
         id="path4198-08"
         d="M 0,0 5,-5 -12.5,0 5,5 0,0 z"
         style="fill-rule:evenodd;stroke:#000000;stroke-width:1pt"
         transform="matrix(0.8,0,0,0.8,10,0)" />
    </marker>
    <marker
       inkscape:stockid="Arrow1Lstart"
       orient="auto"
       refY="0"
       refX="0"
       id="Arrow1Lstart-1"
       style="overflow:visible">
      <path
         inkscape:connector-curvature="0"
         id="path4198-2"
         d="M 0,0 5,-5 -12.5,0 5,5 0,0 z"
         style="fill-rule:evenodd;stroke:#000000;stroke-width:1pt"
         transform="matrix(0.8,0,0,0.8,10,0)" />
    </marker>
  </defs>
  <g
     id="figure_1">
    <g
       id="patch_1">
      <path
         d=" M0 360 L360 360 L360 0 L0 0 z "
         style="fill:#ffffff;"
         id="path10" />
    </g>
    <g
       id="axes_1">
      <g
         id="patch_2">
        <path
           d=" M45 324 L324 324 L324 36 L45 36 z "
           style="fill:#ffffff;"
           id="path14" />
      </g>
      <g
         id="line2d_1">
        <path
           clip-path="url(#pa3442b8bd5)"
           d=" M45 324 L45.0625 320.399 L45.1239 316.8 L45.1864 313.2 L45.2478 309.6 L45.3102 306 L45.3716 302.4 L45.4341 298.8 L45.4955 295.199 L45.558 291.6 L45.6205 288.004 L45.683 284.398 L45.7488 280.797 L45.8214 277.193 L45.904 273.588 L46.0044 269.979 L46.1294 266.371 L46.2845 262.768 L46.4742 259.175 L46.7075 255.611 L47.0077 252.002 L47.4061 248.409 L47.9429 244.798 L48.6672 241.188 L49.6671 237.567 L51.1235 233.942 L53.5117 230.268 L57.7938 226.508 L63.8738 222.752 L74.2269 218.762 L89.9491 214.652 L91.0941 215.766 L92.507 215.382 L94.0716 215.01 L95.7568 214.641 L97.5446 214.272 L99.4162 213.906 L101.368 213.54 L103.39 213.177 L105.486 212.811 L107.654 212.443 L109.891 212.08 L112.199 211.714 L114.583 211.344 L117.037 210.978 L119.563 210.61 L122.164 210.243 L124.841 209.873 L127.593 209.504 L130.399 209.135 L133.292 208.766 L136.215 208.397 L139.254 208.02 L142.382 207.647 L145.638 207.139 L148.869 206.898 L152.202 206.521 L155.579 206.15 L159.061 205.764 L162.853 205.236 L166.433 205.009 L170.235 204.61 L174.075 204.227 L178.024 203.835 L182.022 203.446 L186.106 203.051 L190.272 202.657 L194.522 202.259 L198.928 201.722"
           style="fill:none;stroke:#ff0000;"
           id="path17" />
      </g>
      <g
         id="line2d_2">
        <path
           clip-path="url(#pa3442b8bd5)"
           d=" M45 324 L45.0625 320.399 L45.1239 316.8 L45.1864 313.2 L45.2478 309.6 L45.3102 306 L45.3716 302.4 L45.4341 298.8 L45.4955 295.199 L45.558 291.599 L45.6205 287.999 L45.6819 284.399 L45.7444 280.799 L45.8058 277.199 L45.8682 273.599 L45.9296 269.999 L45.9921 266.402 L46.0546 262.808 L46.1182 259.219 L46.1852 255.595 L46.2555 251.994 L46.3314 248.392 L46.4162 244.789 L46.5111 241.184 L46.6215 237.579 L46.751 233.973 L46.9017 230.367 L47.0746 226.762 L47.2733 223.155 L47.501 219.548 L47.7666 215.939 L47.9462 212.356 L48.2085 208.735 L48.5578 205.125 L48.9986 201.519 L49.5354 197.921 L50.1738 194.334 L50.9282 190.766 L51.8388 187.116 L52.899 183.532 L54.1824 179.9 L55.7482 176.277 L57.6275 172.666 L59.854 169.023 L62.4118 165.397 L65.2699 161.753 L68.3568 158.128 L71.6345 154.515 L75.0851 150.908 L78.6932 147.305 L82.4686 143.689 L86.4003 140.079 L90.4926 136.47 L94.7647 132.848 L99.2186 129.227 L103.866 125.604 L108.729 121.969 L113.818 118.333 L119.15 114.691 L124.756 111.035 L130.661 107.366 L136.885 103.688 L143.167 100.042 L149.878 96.329 L157.027 92.5992 L164.63 88.8508 L172.721 85.084 L181.375 81.2812 L190.668 77.4327 L200.66 73.5454 L211.461 69.5998 L223.07 65.5978 L235.565 61.5311 L249.231 57.3393"
           style="fill:none;stroke:#0000ff;"
           id="path20" />
      </g>
      <g
         id="line2d_3">
        <path
           clip-path="url(#pa3442b8bd5)"
           d=" M45 324 L46.0044 269.979 L46.4742 259.175 L47.0077 252.002 L47.4061 248.409 L47.9429 244.798 L48.6672 241.188 L49.6671 237.567 L51.1235 233.942 L53.5117 230.268 L57.7938 226.508 L63.8738 222.752 L74.2269 218.762 L89.9491 214.652 L91.0941 215.766 L94.0716 215.01 L99.4162 213.906 L107.654 212.443 L119.561 210.612 L133.277 208.766 L139.955 209.8 L143.362 210.671 L147.742 211.766 L149.026 212.13 L150.314 212.368 L152.466 213.222 L155.238 214.308 L157.515 215.394 L159.37 216.476 L161.331 217.92 L162.756 219.36 L163.81 220.805 L164.572 222.139 L165.549 225.797 L165.726 227.185 L165.845 230.427 L165.679 244.848 L164.258 323.999 L156.453 324.093 L157.225 284.695 L158.165 245.293 L158.967 220.221 L159.634 205.896 L160.362 195.171 L161.041 188.054 L162.015 180.843 L162.645 177.285 L163.427 173.648 L164.356 170.082 L165.484 166.447 L166.821 162.829 L168.379 159.214 L170.197 155.562 L172.269 151.917 L174.585 148.27 L177.139 144.618 L179.936 140.934 L182.957 137.248 L186.197 133.556 L189.676 129.839 L193.389 126.117 L197.35 122.385 L201.575 118.642 L206.101 114.871 L210.946 111.084 L216.14 107.277 L216.444 107.69 L218.166 106.161 L221.167 103.894 L225.632 100.851 L232.354 96.6294 L235.609 94.7025 L235.609 94.7025"
           style="fill:none;stroke:#000000;"
           id="path23" />
      </g>
      <g
         id="matplotlib.axis_1">
        <g
           id="xtick_1">
          <g
             id="line2d_4">
            <defs
               id="defs28">
              <path
                 d=" M0 0 L0 -4"
                 id="mcb557df647"
                 style="stroke:#000000;stroke-linecap:butt;stroke-width:0.5;" />
            </defs>
            <g
               id="g31">
              <use
                 style="stroke:#000000;stroke-linecap:butt;stroke-width:0.5;"
                 x="45.0"
                 xlink:href="#mcb557df647"
                 y="324.0"
                 id="use33" />
            </g>
          </g>
          <g
             id="line2d_5">
            <defs
               id="defs36">
              <path
                 d=" M0 0 L0 4"
                 id="mdad270ee8e"
                 style="stroke:#000000;stroke-linecap:butt;stroke-width:0.5;" />
            </defs>
            <g
               id="g39">
              <use
                 style="stroke:#000000;stroke-linecap:butt;stroke-width:0.5;"
                 x="45.0"
                 xlink:href="#mdad270ee8e"
                 y="36.0"
                 id="use41" />
            </g>
          </g>
          <g
             id="text_1">
            <!-- 0.00 -->
            <defs
               id="defs44">
              <path
                 d=" M31.7812 66.4062 Q24.1719 66.4062 20.3281 58.9062 Q16.5 51.4219 16.5 36.375 Q16.5 21.3906 20.3281 13.8906 Q24.1719 6.39062 31.7812 6.39062 Q39.4531 6.39062 43.2812 13.8906 Q47.125 21.3906 47.125 36.375 Q47.125 51.4219 43.2812 58.9062 Q39.4531 66.4062 31.7812 66.4062 M31.7812 74.2188 Q44.0469 74.2188 50.5156 64.5156 Q56.9844 54.8281 56.9844 36.375 Q56.9844 17.9688 50.5156 8.26562 Q44.0469 -1.42188 31.7812 -1.42188 Q19.5312 -1.42188 13.0625 8.26562 Q6.59375 17.9688 6.59375 36.375 Q6.59375 54.8281 13.0625 64.5156 Q19.5312 74.2188 31.7812 74.2188"
                 id="BitstreamVeraSans-Roman-30" />
              <path
                 d=" M10.6875 12.4062 L21 12.4062 L21 0 L10.6875 0 z "
                 id="BitstreamVeraSans-Roman-2e" />
            </defs>
            <g
               transform="translate(32.4346875 336.90625)scale(0.12 -0.12)"
               id="g48">
              <use
                 xlink:href="#BitstreamVeraSans-Roman-30"
                 id="use50" />
              <use
                 x="63.623046875"
                 xlink:href="#BitstreamVeraSans-Roman-2e"
                 id="use52" />
              <use
                 x="95.41015625"
                 xlink:href="#BitstreamVeraSans-Roman-30"
                 id="use54" />
              <use
                 x="159.033203125"
                 xlink:href="#BitstreamVeraSans-Roman-30"
                 id="use56" />
            </g>
          </g>
        </g>
        <g
           id="xtick_2">
          <g
             id="line2d_6">
            <g
               id="g60">
              <use
                 style="stroke:#000000;stroke-linecap:butt;stroke-width:0.5;"
                 x="100.8"
                 xlink:href="#mcb557df647"
                 y="324.0"
                 id="use62" />
            </g>
          </g>
          <g
             id="line2d_7">
            <g
               id="g65">
              <use
                 style="stroke:#000000;stroke-linecap:butt;stroke-width:0.5;"
                 x="100.8"
                 xlink:href="#mdad270ee8e"
                 y="36.0"
                 id="use67" />
            </g>
          </g>
          <g
             id="text_2">
            <!-- 0.05 -->
            <defs
               id="defs70">
              <path
                 d=" M10.7969 72.9062 L49.5156 72.9062 L49.5156 64.5938 L19.8281 64.5938 L19.8281 46.7344 Q21.9688 47.4688 24.1094 47.8281 Q26.2656 48.1875 28.4219 48.1875 Q40.625 48.1875 47.75 41.5 Q54.8906 34.8125 54.8906 23.3906 Q54.8906 11.625 47.5625 5.09375 Q40.2344 -1.42188 26.9062 -1.42188 Q22.3125 -1.42188 17.5469 -0.640625 Q12.7969 0.140625 7.71875 1.70312 L7.71875 11.625 Q12.1094 9.23438 16.7969 8.0625 Q21.4844 6.89062 26.7031 6.89062 Q35.1562 6.89062 40.0781 11.3281 Q45.0156 15.7656 45.0156 23.3906 Q45.0156 31 40.0781 35.4375 Q35.1562 39.8906 26.7031 39.8906 Q22.75 39.8906 18.8125 39.0156 Q14.8906 38.1406 10.7969 36.2812 z "
                 id="BitstreamVeraSans-Roman-35" />
            </defs>
            <g
               transform="translate(88.3603125 336.90625)scale(0.12 -0.12)"
               id="g73">
              <use
                 xlink:href="#BitstreamVeraSans-Roman-30"
                 id="use75" />
              <use
                 x="63.623046875"
                 xlink:href="#BitstreamVeraSans-Roman-2e"
                 id="use77" />
              <use
                 x="95.41015625"
                 xlink:href="#BitstreamVeraSans-Roman-30"
                 id="use79" />
              <use
                 x="159.033203125"
                 xlink:href="#BitstreamVeraSans-Roman-35"
                 id="use81" />
            </g>
          </g>
        </g>
        <g
           id="xtick_3">
          <g
             id="line2d_8">
            <g
               id="g85">
              <use
                 style="stroke:#000000;stroke-linecap:butt;stroke-width:0.5;"
                 x="156.6"
                 xlink:href="#mcb557df647"
                 y="324.0"
                 id="use87" />
            </g>
          </g>
          <g
             id="line2d_9">
            <g
               id="g90">
              <use
                 style="stroke:#000000;stroke-linecap:butt;stroke-width:0.5;"
                 x="156.6"
                 xlink:href="#mdad270ee8e"
                 y="36.0"
                 id="use92" />
            </g>
          </g>
          <g
             id="text_3">
            <!-- 0.10 -->
            <defs
               id="defs95">
              <path
                 d=" M12.4062 8.29688 L28.5156 8.29688 L28.5156 63.9219 L10.9844 60.4062 L10.9844 69.3906 L28.4219 72.9062 L38.2812 72.9062 L38.2812 8.29688 L54.3906 8.29688 L54.3906 0 L12.4062 0 z "
                 id="BitstreamVeraSans-Roman-31" />
            </defs>
            <g
               transform="translate(144.0346875 336.90625)scale(0.12 -0.12)"
               id="g98">
              <use
                 xlink:href="#BitstreamVeraSans-Roman-30"
                 id="use100" />
              <use
                 x="63.623046875"
                 xlink:href="#BitstreamVeraSans-Roman-2e"
                 id="use102" />
              <use
                 x="95.41015625"
                 xlink:href="#BitstreamVeraSans-Roman-31"
                 id="use104" />
              <use
                 x="159.033203125"
                 xlink:href="#BitstreamVeraSans-Roman-30"
                 id="use106" />
            </g>
          </g>
        </g>
        <g
           id="xtick_4">
          <g
             id="line2d_10">
            <g
               id="g110">
              <use
                 style="stroke:#000000;stroke-linecap:butt;stroke-width:0.5;"
                 x="212.4"
                 xlink:href="#mcb557df647"
                 y="324.0"
                 id="use112" />
            </g>
          </g>
          <g
             id="line2d_11">
            <g
               id="g115">
              <use
                 style="stroke:#000000;stroke-linecap:butt;stroke-width:0.5;"
                 x="212.4"
                 xlink:href="#mdad270ee8e"
                 y="36.0"
                 id="use117" />
            </g>
          </g>
          <g
             id="text_4">
            <!-- 0.15 -->
            <g
               transform="translate(199.9603125 336.90625)scale(0.12 -0.12)"
               id="g120">
              <use
                 xlink:href="#BitstreamVeraSans-Roman-30"
                 id="use122" />
              <use
                 x="63.623046875"
                 xlink:href="#BitstreamVeraSans-Roman-2e"
                 id="use124" />
              <use
                 x="95.41015625"
                 xlink:href="#BitstreamVeraSans-Roman-31"
                 id="use126" />
              <use
                 x="159.033203125"
                 xlink:href="#BitstreamVeraSans-Roman-35"
                 id="use128" />
            </g>
          </g>
        </g>
        <g
           id="xtick_5">
          <g
             id="line2d_12">
            <g
               id="g132">
              <use
                 style="stroke:#000000;stroke-linecap:butt;stroke-width:0.5;"
                 x="268.2"
                 xlink:href="#mcb557df647"
                 y="324.0"
                 id="use134" />
            </g>
          </g>
          <g
             id="line2d_13">
            <g
               id="g137">
              <use
                 style="stroke:#000000;stroke-linecap:butt;stroke-width:0.5;"
                 x="268.2"
                 xlink:href="#mdad270ee8e"
                 y="36.0"
                 id="use139" />
            </g>
          </g>
          <g
             id="text_5">
            <!-- 0.20 -->
            <defs
               id="defs142">
              <path
                 d=" M19.1875 8.29688 L53.6094 8.29688 L53.6094 0 L7.32812 0 L7.32812 8.29688 Q12.9375 14.1094 22.625 23.8906 Q32.3281 33.6875 34.8125 36.5312 Q39.5469 41.8438 41.4219 45.5312 Q43.3125 49.2188 43.3125 52.7812 Q43.3125 58.5938 39.2344 62.25 Q35.1562 65.9219 28.6094 65.9219 Q23.9688 65.9219 18.8125 64.3125 Q13.6719 62.7031 7.8125 59.4219 L7.8125 69.3906 Q13.7656 71.7812 18.9375 73 Q24.125 74.2188 28.4219 74.2188 Q39.75 74.2188 46.4844 68.5469 Q53.2188 62.8906 53.2188 53.4219 Q53.2188 48.9219 51.5312 44.8906 Q49.8594 40.875 45.4062 35.4062 Q44.1875 33.9844 37.6406 27.2188 Q31.1094 20.4531 19.1875 8.29688"
                 id="BitstreamVeraSans-Roman-32" />
            </defs>
            <g
               transform="translate(255.6346875 336.90625)scale(0.12 -0.12)"
               id="g145">
              <use
                 xlink:href="#BitstreamVeraSans-Roman-30"
                 id="use147" />
              <use
                 x="63.623046875"
                 xlink:href="#BitstreamVeraSans-Roman-2e"
                 id="use149" />
              <use
                 x="95.41015625"
                 xlink:href="#BitstreamVeraSans-Roman-32"
                 id="use151" />
              <use
                 x="159.033203125"
                 xlink:href="#BitstreamVeraSans-Roman-30"
                 id="use153" />
            </g>
          </g>
        </g>
        <g
           id="xtick_6">
          <g
             id="line2d_14">
            <g
               id="g157">
              <use
                 style="stroke:#000000;stroke-linecap:butt;stroke-width:0.5;"
                 x="324.0"
                 xlink:href="#mcb557df647"
                 y="324.0"
                 id="use159" />
            </g>
          </g>
          <g
             id="line2d_15">
            <g
               id="g162">
              <use
                 style="stroke:#000000;stroke-linecap:butt;stroke-width:0.5;"
                 x="324.0"
                 xlink:href="#mdad270ee8e"
                 y="36.0"
                 id="use164" />
            </g>
          </g>
          <g
             id="text_6">
            <!-- 0.25 -->
            <g
               transform="translate(311.5603125 336.90625)scale(0.12 -0.12)"
               id="g167">
              <use
                 xlink:href="#BitstreamVeraSans-Roman-30"
                 id="use169" />
              <use
                 x="63.623046875"
                 xlink:href="#BitstreamVeraSans-Roman-2e"
                 id="use171" />
              <use
                 x="95.41015625"
                 xlink:href="#BitstreamVeraSans-Roman-32"
                 id="use173" />
              <use
                 x="159.033203125"
                 xlink:href="#BitstreamVeraSans-Roman-35"
                 id="use175" />
            </g>
          </g>
        </g>
        <g
           id="text_7">
          <!-- $\varepsilon_{ln}$ -->
          <defs
             id="defs178">
            <path
               d=" M4.39062 8.10938 Q4.39062 8.40625 4.46875 8.98438 Q4.54688 9.57812 4.60938 10.125 Q4.6875 10.6875 4.6875 10.9844 L17.0938 60.5 Q17.4844 62.2031 17.5781 63.1875 Q17.5781 64.7969 11.0781 64.7969 Q10.1094 64.7969 10.1094 66.1094 Q10.1562 66.3594 10.3281 66.9844 Q10.5 67.625 10.7656 67.9688 Q11.0312 68.3125 11.5312 68.3125 L25 69.3906 Q26.2188 69.3906 26.2188 68.1094 L11.8125 10.5938 Q11.0781 8.98438 11.0781 5.8125 Q11.0781 1.51562 14.0156 1.51562 Q17.0938 1.51562 18.625 5.34375 Q20.1719 9.1875 21.3906 14.7031 Q21.5781 15.2812 22.2188 15.2812 L23.3906 15.2812 Q23.7812 15.2812 24.0469 14.9688 Q24.3125 14.6562 24.3125 14.3125 Q23.1406 9.46875 22.1875 6.65625 Q21.2344 3.85938 19.1406 1.35938 Q17.0469 -1.125 13.8125 -1.125 Q9.8125 -1.125 7.09375 1.45312 Q4.39062 4.04688 4.39062 8.10938"
               id="Cmmi10-6c" />
            <path
               d=" M7.71875 1.70312 Q7.71875 2.29688 7.8125 2.59375 L15.2812 32.4219 Q16.0156 35.2031 16.0156 37.3125 Q16.0156 41.6094 13.0938 41.6094 Q9.96875 41.6094 8.45312 37.8594 Q6.9375 34.125 5.51562 28.4219 Q5.51562 28.125 5.21875 27.9531 Q4.9375 27.7812 4.6875 27.7812 L3.51562 27.7812 Q3.17188 27.7812 2.92188 28.1406 Q2.6875 28.5156 2.6875 28.8125 Q3.76562 33.1562 4.76562 36.1719 Q5.76562 39.2031 7.89062 41.6875 Q10.0156 44.1875 13.1875 44.1875 Q16.9375 44.1875 19.8125 41.8125 Q22.7031 39.4531 22.7031 35.7969 Q25.6875 39.7031 29.6875 41.9375 Q33.6875 44.1875 38.1875 44.1875 Q41.75 44.1875 44.3281 42.9688 Q46.9219 41.75 48.3594 39.2812 Q49.8125 36.8125 49.8125 33.4062 Q49.8125 29.2969 47.9688 23.4844 Q46.1406 17.6719 43.4062 10.5 Q42 7.23438 42 4.5 Q42 1.51562 44.2812 1.51562 Q48.1875 1.51562 50.7969 5.70312 Q53.4219 9.90625 54.5 14.7031 Q54.6875 15.2812 55.3281 15.2812 L56.5 15.2812 Q56.8906 15.2812 57.1562 15.0312 Q57.4219 14.7969 57.4219 14.4062 Q57.4219 14.3125 57.3281 14.1094 Q55.9531 8.45312 52.5625 3.65625 Q49.1719 -1.125 44.0938 -1.125 Q40.5781 -1.125 38.0781 1.29688 Q35.5938 3.71875 35.5938 7.17188 Q35.5938 9.03125 36.375 11.0781 Q37.6406 14.3594 39.2812 18.8906 Q40.9219 23.4375 41.9688 27.5781 Q43.0156 31.7344 43.0156 34.9062 Q43.0156 37.7031 41.8594 39.6562 Q40.7188 41.6094 37.9844 41.6094 Q34.3281 41.6094 31.25 39.9844 Q28.1719 38.375 25.875 35.7188 Q23.5781 33.0625 21.6875 29.3906 L14.8906 2.20312 Q14.5469 0.828125 13.3438 -0.140625 Q12.1562 -1.125 10.6875 -1.125 Q9.46875 -1.125 8.59375 -0.34375 Q7.71875 0.4375 7.71875 1.70312"
               id="Cmmi10-6e" />
            <path
               d=" M2.6875 10.4062 Q2.6875 13.1406 3.875 15.7188 Q5.07812 18.3125 7 20.3594 Q8.9375 22.4062 11.5312 24.0312 Q7.71875 26.6562 7.71875 30.8125 Q7.71875 35.25 11.4219 38.5938 Q15.1406 41.9375 20.5 43.625 Q25.875 45.3125 30.1719 45.3125 Q31.9844 45.3125 35.0312 44.5 Q38.0938 43.7031 40.375 42.375 Q42.6719 41.0625 42.6719 39.5 Q42.6719 38.3281 41.7656 37.4219 Q40.875 36.5312 39.7969 36.5312 Q39.3594 36.5312 37.5781 37.5781 Q35.7969 38.625 33.7812 39.4531 Q31.7812 40.2812 29.3906 40.2812 Q25.7812 40.2812 21.4531 39.4219 Q17.1406 38.5781 13.8594 36.4531 Q10.5938 34.3281 10.5938 30.9062 Q10.5938 27.6406 14.3125 25.3906 Q18.5 27.2969 22.9062 27.2969 Q30.7188 27.2969 30.7188 24.5156 Q30.7188 22.3125 28.0469 21.7031 Q25.3906 21.0938 21.9219 21.0938 Q17.2344 21.0938 14.2031 22.5156 Q10.8906 20.75 8.29688 17.5781 Q5.71875 14.4062 5.71875 10.9844 Q5.71875 7.76562 7.89062 5.95312 Q10.0625 4.15625 13.2344 3.46875 Q16.4062 2.78125 19.5781 2.78125 Q25.0938 2.78125 29.3438 3.96875 Q33.5938 5.17188 35.5 8.98438 Q35.7969 9.625 36.625 9.625 Q37.7031 9.28125 37.7031 8.29688 Q37.7031 8.20312 37.4062 7.32812 Q35.7969 4.15625 32.8438 2 Q29.8906 -0.140625 26.25 -1.17188 Q22.6094 -2.20312 18.7969 -2.20312 Q12.5938 -2.20312 7.64062 1.10938 Q2.6875 4.4375 2.6875 10.4062 M18.1094 24.0312 Q19.875 23.6875 22.125 23.6875 Q26.5156 23.6875 27.5938 24.3125 Q26.2188 24.7031 22.7969 24.7031 Q20.3125 24.7031 18.1094 24.0312"
               id="Cmmi10-22" />
          </defs>
          <g
             transform="translate(177.9 350.836875)scale(0.12 -0.12)"
             id="g183">
            <use
               transform="translate(0.0 27.6875)"
               xlink:href="#Cmmi10-22"
               id="use185" />
            <use
               transform="translate(46.58203125 2.178125)scale(0.7)"
               xlink:href="#Cmmi10-6c"
               id="use187" />
            <use
               transform="translate(67.431640625 2.178125)scale(0.7)"
               xlink:href="#Cmmi10-6e"
               id="use189" />
          </g>
        </g>
      </g>
      <g
         id="matplotlib.axis_2">
        <g
           id="ytick_1">
          <g
             id="line2d_16">
            <defs
               id="defs194">
              <path
                 d=" M0 0 L4 0"
                 id="mc8fcea1516"
                 style="stroke:#000000;stroke-linecap:butt;stroke-width:0.5;" />
            </defs>
            <g
               id="g197">
              <use
                 style="stroke:#000000;stroke-linecap:butt;stroke-width:0.5;"
                 x="45.0"
                 xlink:href="#mc8fcea1516"
                 y="324.0"
                 id="use199" />
            </g>
          </g>
          <g
             id="line2d_17">
            <defs
               id="defs202">
              <path
                 d=" M0 0 L-4 0"
                 id="m0d5b0a6425"
                 style="stroke:#000000;stroke-linecap:butt;stroke-width:0.5;" />
            </defs>
            <g
               id="g205">
              <use
                 style="stroke:#000000;stroke-linecap:butt;stroke-width:0.5;"
                 x="324.0"
                 xlink:href="#m0d5b0a6425"
                 y="324.0"
                 id="use207" />
            </g>
          </g>
          <g
             id="text_8">
            <!-- 0 -->
            <g
               transform="translate(34.953125 328.3678125)scale(0.12 -0.12)"
               id="g210">
              <use
                 xlink:href="#BitstreamVeraSans-Roman-30"
                 id="use212" />
            </g>
          </g>
        </g>
        <g
           id="ytick_2">
          <g
             id="line2d_18">
            <g
               id="g216">
              <use
                 style="stroke:#000000;stroke-linecap:butt;stroke-width:0.5;"
                 x="45.0"
                 xlink:href="#mc8fcea1516"
                 y="288.0"
                 id="use218" />
            </g>
          </g>
          <g
             id="line2d_19">
            <g
               id="g221">
              <use
                 style="stroke:#000000;stroke-linecap:butt;stroke-width:0.5;"
                 x="324.0"
                 xlink:href="#m0d5b0a6425"
                 y="288.0"
                 id="use223" />
            </g>
          </g>
          <g
             id="text_9">
            <!-- 100 -->
            <g
               transform="translate(20.21 292.3678125)scale(0.12 -0.12)"
               id="g226">
              <use
                 xlink:href="#BitstreamVeraSans-Roman-31"
                 id="use228" />
              <use
                 x="63.623046875"
                 xlink:href="#BitstreamVeraSans-Roman-30"
                 id="use230" />
              <use
                 x="127.24609375"
                 xlink:href="#BitstreamVeraSans-Roman-30"
                 id="use232" />
            </g>
          </g>
        </g>
        <g
           id="ytick_3">
          <g
             id="line2d_20">
            <g
               id="g236">
              <use
                 style="stroke:#000000;stroke-linecap:butt;stroke-width:0.5;"
                 x="45.0"
                 xlink:href="#mc8fcea1516"
                 y="252.0"
                 id="use238" />
            </g>
          </g>
          <g
             id="line2d_21">
            <g
               id="g241">
              <use
                 style="stroke:#000000;stroke-linecap:butt;stroke-width:0.5;"
                 x="324.0"
                 xlink:href="#m0d5b0a6425"
                 y="252.0"
                 id="use243" />
            </g>
          </g>
          <g
             id="text_10">
            <!-- 200 -->
            <g
               transform="translate(19.77125 256.3678125)scale(0.12 -0.12)"
               id="g246">
              <use
                 xlink:href="#BitstreamVeraSans-Roman-32"
                 id="use248" />
              <use
                 x="63.623046875"
                 xlink:href="#BitstreamVeraSans-Roman-30"
                 id="use250" />
              <use
                 x="127.24609375"
                 xlink:href="#BitstreamVeraSans-Roman-30"
                 id="use252" />
            </g>
          </g>
        </g>
        <g
           id="ytick_4">
          <g
             id="line2d_22">
            <g
               id="g256">
              <use
                 style="stroke:#000000;stroke-linecap:butt;stroke-width:0.5;"
                 x="45.0"
                 xlink:href="#mc8fcea1516"
                 y="216.0"
                 id="use258" />
            </g>
          </g>
          <g
             id="line2d_23">
            <g
               id="g261">
              <use
                 style="stroke:#000000;stroke-linecap:butt;stroke-width:0.5;"
                 x="324.0"
                 xlink:href="#m0d5b0a6425"
                 y="216.0"
                 id="use263" />
            </g>
          </g>
          <g
             id="text_11">
            <!-- 300 -->
            <defs
               id="defs266">
              <path
                 d=" M40.5781 39.3125 Q47.6562 37.7969 51.625 33 Q55.6094 28.2188 55.6094 21.1875 Q55.6094 10.4062 48.1875 4.48438 Q40.7656 -1.42188 27.0938 -1.42188 Q22.5156 -1.42188 17.6562 -0.515625 Q12.7969 0.390625 7.625 2.20312 L7.625 11.7188 Q11.7188 9.32812 16.5938 8.10938 Q21.4844 6.89062 26.8125 6.89062 Q36.0781 6.89062 40.9375 10.5469 Q45.7969 14.2031 45.7969 21.1875 Q45.7969 27.6406 41.2812 31.2656 Q36.7656 34.9062 28.7188 34.9062 L20.2188 34.9062 L20.2188 43.0156 L29.1094 43.0156 Q36.375 43.0156 40.2344 45.9219 Q44.0938 48.8281 44.0938 54.2969 Q44.0938 59.9062 40.1094 62.9062 Q36.1406 65.9219 28.7188 65.9219 Q24.6562 65.9219 20.0156 65.0312 Q15.375 64.1562 9.8125 62.3125 L9.8125 71.0938 Q15.4375 72.6562 20.3438 73.4375 Q25.25 74.2188 29.5938 74.2188 Q40.8281 74.2188 47.3594 69.1094 Q53.9062 64.0156 53.9062 55.3281 Q53.9062 49.2656 50.4375 45.0938 Q46.9688 40.9219 40.5781 39.3125"
                 id="BitstreamVeraSans-Roman-33" />
            </defs>
            <g
               transform="translate(19.806875 220.3678125)scale(0.12 -0.12)"
               id="g269">
              <use
                 xlink:href="#BitstreamVeraSans-Roman-33"
                 id="use271" />
              <use
                 x="63.623046875"
                 xlink:href="#BitstreamVeraSans-Roman-30"
                 id="use273" />
              <use
                 x="127.24609375"
                 xlink:href="#BitstreamVeraSans-Roman-30"
                 id="use275" />
            </g>
          </g>
        </g>
        <g
           id="ytick_5">
          <g
             id="line2d_24">
            <g
               id="g279">
              <use
                 style="stroke:#000000;stroke-linecap:butt;stroke-width:0.5;"
                 x="45.0"
                 xlink:href="#mc8fcea1516"
                 y="180.0"
                 id="use281" />
            </g>
          </g>
          <g
             id="line2d_25">
            <g
               id="g284">
              <use
                 style="stroke:#000000;stroke-linecap:butt;stroke-width:0.5;"
                 x="324.0"
                 xlink:href="#m0d5b0a6425"
                 y="180.0"
                 id="use286" />
            </g>
          </g>
          <g
             id="text_12">
            <!-- 400 -->
            <defs
               id="defs289">
              <path
                 d=" M37.7969 64.3125 L12.8906 25.3906 L37.7969 25.3906 z  M35.2031 72.9062 L47.6094 72.9062 L47.6094 25.3906 L58.0156 25.3906 L58.0156 17.1875 L47.6094 17.1875 L47.6094 0 L37.7969 0 L37.7969 17.1875 L4.89062 17.1875 L4.89062 26.7031 z "
                 id="BitstreamVeraSans-Roman-34" />
            </defs>
            <g
               transform="translate(19.47875 184.3678125)scale(0.12 -0.12)"
               id="g292">
              <use
                 xlink:href="#BitstreamVeraSans-Roman-34"
                 id="use294" />
              <use
                 x="63.623046875"
                 xlink:href="#BitstreamVeraSans-Roman-30"
                 id="use296" />
              <use
                 x="127.24609375"
                 xlink:href="#BitstreamVeraSans-Roman-30"
                 id="use298" />
            </g>
          </g>
        </g>
        <g
           id="ytick_6">
          <g
             id="line2d_26">
            <g
               id="g302">
              <use
                 style="stroke:#000000;stroke-linecap:butt;stroke-width:0.5;"
                 x="45.0"
                 xlink:href="#mc8fcea1516"
                 y="144.0"
                 id="use304" />
            </g>
          </g>
          <g
             id="line2d_27">
            <g
               id="g307">
              <use
                 style="stroke:#000000;stroke-linecap:butt;stroke-width:0.5;"
                 x="324.0"
                 xlink:href="#m0d5b0a6425"
                 y="144.0"
                 id="use309" />
            </g>
          </g>
          <g
             id="text_13">
            <!-- 500 -->
            <g
               transform="translate(19.818125 148.3678125)scale(0.12 -0.12)"
               id="g312">
              <use
                 xlink:href="#BitstreamVeraSans-Roman-35"
                 id="use314" />
              <use
                 x="63.623046875"
                 xlink:href="#BitstreamVeraSans-Roman-30"
                 id="use316" />
              <use
                 x="127.24609375"
                 xlink:href="#BitstreamVeraSans-Roman-30"
                 id="use318" />
            </g>
          </g>
        </g>
        <g
           id="ytick_7">
          <g
             id="line2d_28">
            <g
               id="g322">
              <use
                 style="stroke:#000000;stroke-linecap:butt;stroke-width:0.5;"
                 x="45.0"
                 xlink:href="#mc8fcea1516"
                 y="108.0"
                 id="use324" />
            </g>
          </g>
          <g
             id="line2d_29">
            <g
               id="g327">
              <use
                 style="stroke:#000000;stroke-linecap:butt;stroke-width:0.5;"
                 x="324.0"
                 xlink:href="#m0d5b0a6425"
                 y="108.0"
                 id="use329" />
            </g>
          </g>
          <g
             id="text_14">
            <!-- 600 -->
            <defs
               id="defs332">
              <path
                 d=" M33.0156 40.375 Q26.375 40.375 22.4844 35.8281 Q18.6094 31.2969 18.6094 23.3906 Q18.6094 15.5312 22.4844 10.9531 Q26.375 6.39062 33.0156 6.39062 Q39.6562 6.39062 43.5312 10.9531 Q47.4062 15.5312 47.4062 23.3906 Q47.4062 31.2969 43.5312 35.8281 Q39.6562 40.375 33.0156 40.375 M52.5938 71.2969 L52.5938 62.3125 Q48.875 64.0625 45.0938 64.9844 Q41.3125 65.9219 37.5938 65.9219 Q27.8281 65.9219 22.6719 59.3281 Q17.5312 52.7344 16.7969 39.4062 Q19.6719 43.6562 24.0156 45.9219 Q28.375 48.1875 33.5938 48.1875 Q44.5781 48.1875 50.9531 41.5156 Q57.3281 34.8594 57.3281 23.3906 Q57.3281 12.1562 50.6875 5.35938 Q44.0469 -1.42188 33.0156 -1.42188 Q20.3594 -1.42188 13.6719 8.26562 Q6.98438 17.9688 6.98438 36.375 Q6.98438 53.6562 15.1875 63.9375 Q23.3906 74.2188 37.2031 74.2188 Q40.9219 74.2188 44.7031 73.4844 Q48.4844 72.75 52.5938 71.2969"
                 id="BitstreamVeraSans-Roman-36" />
            </defs>
            <g
               transform="translate(19.73 112.3678125)scale(0.12 -0.12)"
               id="g335">
              <use
                 xlink:href="#BitstreamVeraSans-Roman-36"
                 id="use337" />
              <use
                 x="63.623046875"
                 xlink:href="#BitstreamVeraSans-Roman-30"
                 id="use339" />
              <use
                 x="127.24609375"
                 xlink:href="#BitstreamVeraSans-Roman-30"
                 id="use341" />
            </g>
          </g>
        </g>
        <g
           id="ytick_8">
          <g
             id="line2d_30">
            <g
               id="g345">
              <use
                 style="stroke:#000000;stroke-linecap:butt;stroke-width:0.5;"
                 x="45.0"
                 xlink:href="#mc8fcea1516"
                 y="72.0"
                 id="use347" />
            </g>
          </g>
          <g
             id="line2d_31">
            <g
               id="g350">
              <use
                 style="stroke:#000000;stroke-linecap:butt;stroke-width:0.5;"
                 x="324.0"
                 xlink:href="#m0d5b0a6425"
                 y="72.0"
                 id="use352" />
            </g>
          </g>
          <g
             id="text_15">
            <!-- 700 -->
            <defs
               id="defs355">
              <path
                 d=" M8.20312 72.9062 L55.0781 72.9062 L55.0781 68.7031 L28.6094 0 L18.3125 0 L43.2188 64.5938 L8.20312 64.5938 z "
                 id="BitstreamVeraSans-Roman-37" />
            </defs>
            <g
               transform="translate(19.87625 76.3678125)scale(0.12 -0.12)"
               id="g358">
              <use
                 xlink:href="#BitstreamVeraSans-Roman-37"
                 id="use360" />
              <use
                 x="63.623046875"
                 xlink:href="#BitstreamVeraSans-Roman-30"
                 id="use362" />
              <use
                 x="127.24609375"
                 xlink:href="#BitstreamVeraSans-Roman-30"
                 id="use364" />
            </g>
          </g>
        </g>
        <g
           id="ytick_9">
          <g
             id="line2d_32">
            <g
               id="g368">
              <use
                 style="stroke:#000000;stroke-linecap:butt;stroke-width:0.5;"
                 x="45.0"
                 xlink:href="#mc8fcea1516"
                 y="36.0"
                 id="use370" />
            </g>
          </g>
          <g
             id="line2d_33">
            <g
               id="g373">
              <use
                 style="stroke:#000000;stroke-linecap:butt;stroke-width:0.5;"
                 x="324.0"
                 xlink:href="#m0d5b0a6425"
                 y="36.0"
                 id="use375" />
            </g>
          </g>
          <g
             id="text_16">
            <!-- 800 -->
            <defs
               id="defs378">
              <path
                 d=" M31.7812 34.625 Q24.75 34.625 20.7188 30.8594 Q16.7031 27.0938 16.7031 20.5156 Q16.7031 13.9219 20.7188 10.1562 Q24.75 6.39062 31.7812 6.39062 Q38.8125 6.39062 42.8594 10.1719 Q46.9219 13.9688 46.9219 20.5156 Q46.9219 27.0938 42.8906 30.8594 Q38.875 34.625 31.7812 34.625 M21.9219 38.8125 Q15.5781 40.375 12.0312 44.7188 Q8.5 49.0781 8.5 55.3281 Q8.5 64.0625 14.7188 69.1406 Q20.9531 74.2188 31.7812 74.2188 Q42.6719 74.2188 48.875 69.1406 Q55.0781 64.0625 55.0781 55.3281 Q55.0781 49.0781 51.5312 44.7188 Q48 40.375 41.7031 38.8125 Q48.8281 37.1562 52.7969 32.3125 Q56.7812 27.4844 56.7812 20.5156 Q56.7812 9.90625 50.3125 4.23438 Q43.8438 -1.42188 31.7812 -1.42188 Q19.7344 -1.42188 13.25 4.23438 Q6.78125 9.90625 6.78125 20.5156 Q6.78125 27.4844 10.7812 32.3125 Q14.7969 37.1562 21.9219 38.8125 M18.3125 54.3906 Q18.3125 48.7344 21.8438 45.5625 Q25.3906 42.3906 31.7812 42.3906 Q38.1406 42.3906 41.7188 45.5625 Q45.3125 48.7344 45.3125 54.3906 Q45.3125 60.0625 41.7188 63.2344 Q38.1406 66.4062 31.7812 66.4062 Q25.3906 66.4062 21.8438 63.2344 Q18.3125 60.0625 18.3125 54.3906"
                 id="BitstreamVeraSans-Roman-38" />
            </defs>
            <g
               transform="translate(19.705625 40.3678125)scale(0.12 -0.12)"
               id="g381">
              <use
                 xlink:href="#BitstreamVeraSans-Roman-38"
                 id="use383" />
              <use
                 x="63.623046875"
                 xlink:href="#BitstreamVeraSans-Roman-30"
                 id="use385" />
              <use
                 x="127.24609375"
                 xlink:href="#BitstreamVeraSans-Roman-30"
                 id="use387" />
            </g>
          </g>
        </g>
        <g
           id="text_17">
          <!-- $\sigma_{true}\,\mathrm{(MPa})$ -->
          <defs
             id="defs390">
            <path
               d=" M3.51562 0 L3.51562 3.51562 Q13.8125 3.51562 13.8125 9.42188 L13.8125 61.625 Q13.8125 64.7969 3.51562 64.7969 L3.51562 68.3125 L22.4062 68.3125 Q23.6406 68.3125 24.0312 67.1875 L45.7969 10.5938 L67.5781 67.1875 Q67.9688 68.3125 69.1875 68.3125 L88.0938 68.3125 L88.0938 64.7969 Q77.7812 64.7969 77.7812 61.625 L77.7812 6.6875 Q77.7812 3.51562 88.0938 3.51562 L88.0938 0 L58.9844 0 L58.9844 3.51562 Q69.2812 3.51562 69.2812 6.6875 L69.2812 64.8906 L44.6719 1.125 Q44.2344 0 43.0156 0 Q41.75 0 41.3125 1.125 L17 64.1094 L17 9.42188 Q17 3.51562 27.2969 3.51562 L27.2969 0 z "
               id="Cmr10-4d" />
            <path
               d=" M18.7031 -1.125 Q14.2656 -1.125 10.8125 1 Q7.375 3.125 5.48438 6.73438 Q3.60938 10.3594 3.60938 14.7031 Q3.60938 19.3438 5.70312 24.4688 Q7.8125 29.5938 11.4531 33.8438 Q15.0938 38.0938 19.6719 40.5938 Q24.2656 43.1094 29.1094 43.1094 L54.2969 43.1094 Q55.3281 43.1094 56.0469 42.4219 Q56.7812 41.75 56.7812 40.5781 Q56.7812 39.1094 55.7344 38.0156 Q54.6875 36.9219 53.2188 36.9219 L41.0156 36.9219 Q43.8906 32.625 43.8906 26.5156 Q43.8906 21.4844 41.9375 16.5938 Q39.9844 11.7188 36.5156 7.6875 Q33.0625 3.65625 28.4375 1.26562 Q23.8281 -1.125 18.7031 -1.125 M18.7969 1.51562 Q24.2656 1.51562 28.4844 5.78125 Q32.7188 10.0625 34.9531 16.2344 Q37.2031 22.4062 37.2031 27.6875 Q37.2031 31.9844 34.8281 34.4531 Q32.4688 36.9219 28.2188 36.9219 Q22.4062 36.9219 18.3281 33.0156 Q14.2656 29.1094 12.2344 23.1875 Q10.2031 17.2812 10.2031 11.8125 Q10.2031 7.51562 12.4688 4.51562 Q14.75 1.51562 18.7969 1.51562"
               id="Cmmi10-be" />
            <path
               d=" M6.5 -25 Q5.60938 -25 5.60938 -24.125 Q5.60938 -23.6875 5.8125 -23.4844 Q22.9062 -6.78125 22.9062 25 Q22.9062 56.7812 6 73.2969 Q5.60938 73.5312 5.60938 74.125 Q5.60938 74.4688 5.875 74.7344 Q6.15625 75 6.5 75 L7.42188 75 Q7.71875 75 7.90625 74.8125 Q15.0938 69.1406 19.875 61.0312 Q24.6562 52.9375 26.875 43.75 Q29.1094 34.5781 29.1094 25 Q29.1094 17.9219 27.9062 11.0625 Q26.7031 4.20312 24.0938 -2.45312 Q21.4844 -9.125 17.4844 -14.7656 Q13.4844 -20.4062 7.90625 -24.8125 Q7.71875 -25 7.42188 -25 z "
               id="Cmr10-29" />
            <path
               d=" M7.71875 1.70312 Q7.71875 2.29688 7.8125 2.59375 L15.2812 32.4219 Q16.0156 35.2031 16.0156 37.3125 Q16.0156 41.6094 13.0938 41.6094 Q9.96875 41.6094 8.45312 37.8594 Q6.9375 34.125 5.51562 28.4219 Q5.51562 28.125 5.21875 27.9531 Q4.9375 27.7812 4.6875 27.7812 L3.51562 27.7812 Q3.17188 27.7812 2.92188 28.1406 Q2.6875 28.5156 2.6875 28.8125 Q3.76562 33.1562 4.76562 36.1719 Q5.76562 39.2031 7.89062 41.6875 Q10.0156 44.1875 13.1875 44.1875 Q16.6562 44.1875 19.2656 42.1875 Q21.875 40.1875 22.5156 36.9219 Q25.0469 40.2344 28.2969 42.2031 Q31.5469 44.1875 35.4062 44.1875 Q38.5781 44.1875 40.9844 42.3281 Q43.4062 40.4844 43.4062 37.3125 Q43.4062 34.7656 41.8125 32.875 Q40.2344 31 37.5938 31 Q35.9844 31 34.8906 32 Q33.7969 33.0156 33.7969 34.625 Q33.7969 36.8125 35.4062 38.5469 Q37.0156 40.2812 39.1094 40.2812 Q37.5 41.6094 35.2031 41.6094 Q30.9062 41.6094 27.7344 38.5469 Q24.5625 35.5 22.0156 30.8125 L14.8906 2.20312 Q14.5469 0.828125 13.3438 -0.140625 Q12.1562 -1.125 10.6875 -1.125 Q9.46875 -1.125 8.59375 -0.34375 Q7.71875 0.4375 7.71875 1.70312"
               id="Cmmi10-72" />
            <path
               d=" M31 -24.8125 Q25.4375 -20.4062 21.4062 -14.7188 Q17.3906 -9.03125 14.8125 -2.57812 Q12.25 3.85938 10.9844 10.8906 Q9.71875 17.9219 9.71875 25 Q9.71875 32.1719 10.9844 39.2031 Q12.25 46.2344 14.8594 52.7344 Q17.4844 59.2344 21.5312 64.8906 Q25.5938 70.5625 31 74.8125 Q31 75 31.5 75 L32.4219 75 Q32.7188 75 32.9531 74.7344 Q33.2031 74.4688 33.2031 74.125 Q33.2031 73.6875 33.0156 73.4844 Q28.125 68.7031 24.875 63.2344 Q21.625 57.7656 19.6406 51.5781 Q17.6719 45.4062 16.7969 38.7812 Q15.9219 32.1719 15.9219 25 Q15.9219 -6.78125 32.9062 -23.2969 Q33.2031 -23.5781 33.2031 -24.125 Q33.2031 -24.3594 32.9375 -24.6719 Q32.6719 -25 32.4219 -25 L31.5 -25 Q31 -25 31 -24.8125"
               id="Cmr10-28" />
            <path
               d=" M20.125 -1.125 Q15.3281 -1.125 11.7344 1.35938 Q8.15625 3.85938 6.26562 8.07812 Q4.39062 12.3125 4.39062 17 Q4.39062 24.125 7.98438 30.3906 Q11.5781 36.6719 17.7188 40.4219 Q23.875 44.1875 30.9062 44.1875 Q35.2031 44.1875 38.4062 41.9688 Q41.6094 39.75 41.6094 35.5938 Q41.6094 29.8281 37.0156 27.0156 Q32.4219 24.2188 26.6562 23.5625 Q20.9062 22.9062 13.9219 22.9062 L13.625 22.9062 Q12.0156 16.9375 12.0156 12.7031 Q12.0156 8.25 14.0625 4.875 Q16.1094 1.51562 20.3125 1.51562 Q26.2656 1.51562 31.75 4.25 Q37.25 6.98438 40.7188 11.8125 Q41.0156 12.1094 41.5 12.1094 Q42 12.1094 42.5 11.5469 Q43.0156 10.9844 43.0156 10.5 Q43.0156 10.1094 42.8281 9.90625 Q39.1562 4.78125 32.9531 1.82812 Q26.7656 -1.125 20.125 -1.125 M14.2031 25.4844 Q20.0156 25.4844 24.9531 26.0156 Q29.8906 26.5625 33.8906 28.7344 Q37.8906 30.9062 37.8906 35.5 Q37.8906 37.3594 36.8594 38.75 Q35.8438 40.1406 34.2031 40.875 Q32.5625 41.6094 30.8125 41.6094 Q26.5625 41.6094 23.1719 39.3125 Q19.7812 37.0156 17.5781 33.3281 Q15.375 29.6406 14.2031 25.4844"
               id="Cmmi10-65" />
            <path
               d=" M3.32812 0 L3.32812 3.51562 Q13.625 3.51562 13.625 6.6875 L13.625 61.625 Q13.625 64.7969 3.32812 64.7969 L3.32812 68.3125 L38.9219 68.3125 Q44.3906 68.3125 49.8594 66.0625 Q55.3281 63.8125 58.8594 59.5156 Q62.4062 55.2188 62.4062 49.5156 Q62.4062 43.9531 58.8438 39.75 Q55.2812 35.5469 49.8594 33.375 Q44.4375 31.2031 38.9219 31.2031 L22.9062 31.2031 L22.9062 6.6875 Q22.9062 3.51562 33.2031 3.51562 L33.2031 0 z  M22.6094 34.1875 L36.1875 34.1875 Q41.7031 34.1875 45.1094 35.7656 Q48.5312 37.3594 50.1094 40.7031 Q51.7031 44.0469 51.7031 49.5156 Q51.7031 57.6719 48.1094 61.2344 Q44.5312 64.7969 36.1875 64.7969 L27.6875 64.7969 Q25.875 64.7969 24.875 64.6406 Q23.875 64.5 23.2344 63.7969 Q22.6094 63.0938 22.6094 61.625 z "
               id="Cmr10-50" />
            <path
               d=" M6.20312 8.10938 Q6.20312 9.57812 6.5 10.8906 L13.7188 39.5938 L3.21875 39.5938 Q2.20312 39.5938 2.20312 40.9219 Q2.59375 43.1094 3.51562 43.1094 L14.5938 43.1094 L18.6094 59.4219 Q19 60.75 20.1719 61.6719 Q21.3438 62.5938 22.7969 62.5938 Q24.0781 62.5938 24.9219 61.8281 Q25.7812 61.0781 25.7812 59.8125 Q25.7812 59.5156 25.75 59.3438 Q25.7344 59.1875 25.6875 58.9844 L21.6875 43.1094 L31.9844 43.1094 Q33.0156 43.1094 33.0156 41.7969 Q32.9531 41.5469 32.8125 40.9531 Q32.6719 40.375 32.4219 39.9844 Q32.1719 39.5938 31.6875 39.5938 L20.7969 39.5938 L13.625 10.6875 Q12.8906 7.85938 12.8906 5.8125 Q12.8906 1.51562 15.8281 1.51562 Q20.2188 1.51562 23.6094 5.64062 Q27 9.76562 28.8125 14.7031 Q29.2031 15.2812 29.5938 15.2812 L30.8125 15.2812 Q31.2031 15.2812 31.4375 15.0156 Q31.6875 14.75 31.6875 14.4062 Q31.6875 14.2031 31.5938 14.1094 Q29.3906 8.0625 25.1875 3.46875 Q21 -1.125 15.5781 -1.125 Q11.625 -1.125 8.90625 1.45312 Q6.20312 4.04688 6.20312 8.10938"
               id="Cmmi10-74" />
            <path
               d=" M10.5938 10.8906 Q10.5938 14.1562 11.4688 17.5938 Q12.3594 21.0469 13.9375 25.2656 Q15.5312 29.5 16.7031 32.625 Q18.0156 36.2812 18.0156 38.625 Q18.0156 41.6094 15.8281 41.6094 Q11.8594 41.6094 9.29688 37.5312 Q6.73438 33.4531 5.51562 28.4219 Q5.32812 27.7812 4.6875 27.7812 L3.51562 27.7812 Q2.6875 27.7812 2.6875 28.7188 L2.6875 29 Q4.29688 34.9688 7.60938 39.5781 Q10.9375 44.1875 16.0156 44.1875 Q19.5781 44.1875 22.0469 41.8438 Q24.5156 39.5 24.5156 35.8906 Q24.5156 34.0312 23.6875 31.9844 Q23.25 30.7656 21.6875 26.6562 Q20.125 22.5625 19.2812 19.875 Q18.4531 17.1875 17.9219 14.5938 Q17.3906 12.0156 17.3906 9.42188 Q17.3906 6.10938 18.7969 3.8125 Q20.2188 1.51562 23.3906 1.51562 Q29.7812 1.51562 34.625 9.42188 Q34.7188 9.8125 34.7812 10.1719 Q34.8594 10.5469 34.9062 10.8906 L42.0938 39.8906 Q42.4375 41.2188 43.6562 42.1562 Q44.875 43.1094 46.2969 43.1094 Q47.5156 43.1094 48.4062 42.3281 Q49.3125 41.5469 49.3125 40.2812 Q49.3125 39.7031 49.2188 39.5 L42 10.6875 Q41.3125 7.71875 41.3125 5.8125 Q41.3125 1.51562 44.1875 1.51562 Q47.4062 1.51562 49 5.48438 Q50.5938 9.46875 51.7031 14.7031 Q51.9062 15.2812 52.4844 15.2812 L53.7188 15.2812 Q54.1094 15.2812 54.3438 14.9375 Q54.5938 14.5938 54.5938 14.3125 Q53.5156 10.0156 52.5156 6.9375 Q51.5156 3.85938 49.3594 1.35938 Q47.2188 -1.125 44 -1.125 Q40.8281 -1.125 38.3125 0.609375 Q35.7969 2.34375 34.9062 5.32812 Q32.625 2.39062 29.5938 0.625 Q26.5625 -1.125 23.1875 -1.125 Q17.4375 -1.125 14.0156 2.01562 Q10.5938 5.17188 10.5938 10.8906"
               id="Cmmi10-75" />
            <path
               d=" M4 9.8125 Q4 15.7656 8.6875 19.5 Q13.375 23.25 19.9375 24.7812 Q26.5156 26.3125 32.4219 26.3125 L32.4219 30.4219 Q32.4219 33.2969 31.1562 36 Q29.8906 38.7188 27.4844 40.4531 Q25.0938 42.1875 22.2188 42.1875 Q15.5781 42.1875 12.1094 39.2031 Q14.0156 39.2031 15.25 37.7656 Q16.5 36.3281 16.5 34.4219 Q16.5 32.4219 15.0781 31 Q13.6719 29.5938 11.7188 29.5938 Q9.71875 29.5938 8.29688 31 Q6.89062 32.4219 6.89062 34.4219 Q6.89062 39.7031 11.6719 42.2656 Q16.4531 44.8281 22.2188 44.8281 Q26.2656 44.8281 30.3594 43.0938 Q34.4688 41.3594 37.0781 38.125 Q39.7031 34.9062 39.7031 30.6094 L39.7031 8.10938 Q39.7031 6.15625 40.5312 4.51562 Q41.3594 2.875 43.1094 2.875 Q44.7812 2.875 45.5781 4.53125 Q46.3906 6.20312 46.3906 8.10938 L46.3906 14.5 L49.3125 14.5 L49.3125 8.10938 Q49.3125 5.85938 48.1406 3.82812 Q46.9688 1.8125 44.9844 0.609375 Q43.0156 -0.59375 40.7188 -0.59375 Q37.7969 -0.59375 35.6719 1.67188 Q33.5469 3.95312 33.2969 7.07812 Q31.4531 3.32812 27.8281 1.09375 Q24.2188 -1.125 20.125 -1.125 Q16.3125 -1.125 12.625 0 Q8.9375 1.125 6.46875 3.53125 Q4 5.95312 4 9.8125 M12.1094 9.8125 Q12.1094 6.29688 14.6875 3.90625 Q17.2812 1.51562 20.7969 1.51562 Q24.0312 1.51562 26.6562 3.125 Q29.2969 4.73438 30.8594 7.51562 Q32.4219 10.2969 32.4219 13.375 L32.4219 23.7812 Q27.875 23.7812 23.1094 22.2812 Q18.3594 20.7969 15.2344 17.625 Q12.1094 14.4531 12.1094 9.8125"
               id="Cmr10-61" />
          </defs>
          <g
             transform="translate(14.47875 210.54)rotate(-90.0)scale(0.12 -0.12)"
             id="g402">
            <use
               transform="translate(0.0 27.0)"
               xlink:href="#Cmmi10-be"
               id="use404" />
            <use
               transform="translate(57.080078125 1.490625)scale(0.7)"
               xlink:href="#Cmmi10-74"
               id="use406" />
            <use
               transform="translate(82.3388671875 1.490625)scale(0.7)"
               xlink:href="#Cmmi10-72"
               id="use408" />
            <use
               transform="translate(113.920898438 1.490625)scale(0.7)"
               xlink:href="#Cmmi10-75"
               id="use410" />
            <use
               transform="translate(153.9453125 1.490625)scale(0.7)"
               xlink:href="#Cmmi10-65"
               id="use412" />
            <use
               transform="translate(221.6015625 27.0)"
               xlink:href="#Cmr10-28"
               id="use414" />
            <use
               transform="translate(260.419921875 27.0)"
               xlink:href="#Cmr10-4d"
               id="use416" />
            <use
               transform="translate(352.021484375 27.0)"
               xlink:href="#Cmr10-50"
               id="use418" />
            <use
               transform="translate(420.0390625 27.0)"
               xlink:href="#Cmr10-61"
               id="use420" />
            <use
               transform="translate(470.0390625 27.0)"
               xlink:href="#Cmr10-29"
               id="use422" />
          </g>
        </g>
      </g>
      <g
         id="patch_3">
        <path
           d=" M45 36 L324 36"
           style="fill:none;stroke:#000000;"
           id="path425" />
      </g>
      <g
         id="patch_4">
        <path
           d=" M324 324 L324 36"
           style="fill:none;stroke:#000000;"
           id="path428" />
      </g>
      <g
         id="patch_5">
        <path
           d=" M45 324 L324 324"
           style="fill:none;stroke:#000000;"
           id="path431" />
      </g>
      <g
         id="patch_6">
        <path
           d=" M45 324 L45 36"
           style="fill:none;stroke:#000000;"
           id="path434" />
      </g>
    </g>
  </g>
  <defs
     id="defs436">
    <clipPath
       id="pa3442b8bd5">
      <rect
         height="288.0"
         width="279.0"
         x="45.0"
         y="36.0"
         id="rect439" />
    </clipPath>
  </defs>
  <path
     style="fill:none;stroke:#000000;stroke-width:1;stroke-linecap:butt;stroke-linejoin:miter;stroke-opacity:1;stroke-miterlimit:4;stroke-dasharray:none;marker-start:url(#Arrow1Lstart)"
     d="m 258.19884,143.93662 58.65091,46.51624"
     id="path3420"
     inkscape:connector-curvature="0"
     transform="scale(0.8,0.8)" />
  <text
     xml:space="preserve"
     style="font-size:16px;font-style:normal;font-variant:normal;font-weight:normal;font-stretch:normal;text-align:center;line-height:125%;letter-spacing:0px;word-spacing:0px;text-anchor:middle;fill:#000000;fill-opacity:1;stroke:none;font-family:Arial;-inkscape-font-specification:Sans"
     x="270.73804"
     y="162.60934"
     id="text3422"
     sodipodi:linespacing="125%"><tspan
       sodipodi:role="line"
       id="tspan3424"
       x="270.73804"
       y="162.60934"
       style="font-size:11.19999981px">Cotterel-Stokes</tspan></text>
  <path
     style="fill:none;stroke:#000000;stroke-width:0.80000001;stroke-linecap:butt;stroke-linejoin:miter;stroke-miterlimit:4;stroke-opacity:1;stroke-dasharray:none;marker-start:url(#Arrow1Lstart)"
     d="M 138.8429,101.27232 100.55127,81.317527"
     id="path3420-8"
     inkscape:connector-curvature="0"
     sodipodi:nodetypes="cc" />
  <text
     xml:space="preserve"
     style="font-size:16px;font-style:normal;font-variant:normal;font-weight:normal;font-stretch:normal;text-align:center;line-height:125%;letter-spacing:0px;word-spacing:0px;text-anchor:middle;fill:#000000;fill-opacity:1;stroke:none;font-family:Arial;-inkscape-font-specification:Sans"
     x="93.540154"
     y="63.520004"
     id="text3422-4"
     sodipodi:linespacing="125%"><tspan
       sodipodi:role="line"
       id="tspan3424-3"
       x="93.540154"
       y="63.520004"
       style="font-size:11.19999981px">Isothermal room</tspan><tspan
       sodipodi:role="line"
       x="93.540154"
       y="77.520004"
       style="font-size:11.19999981px"
       id="tspan4683">temperature</tspan></text>
  <path
     style="fill:none;stroke:#000000;stroke-width:0.80000001;stroke-linecap:butt;stroke-linejoin:miter;stroke-miterlimit:4;stroke-opacity:1;stroke-dasharray:none;marker-start:url(#Arrow1Lstart)"
     d="m 182.52771,203.74288 46.92073,37.21299"
     id="path3420-5"
     inkscape:connector-curvature="0" />
  <text
     xml:space="preserve"
     style="font-size:16px;font-style:normal;font-variant:normal;font-weight:normal;font-stretch:normal;text-align:center;line-height:125%;letter-spacing:0px;word-spacing:0px;text-anchor:middle;fill:#000000;fill-opacity:1;stroke:none;font-family:Arial;-inkscape-font-specification:Sans"
     x="246.70668"
     y="251.20294"
     id="text3422-46"
     sodipodi:linespacing="125%"><tspan
       sodipodi:role="line"
       id="tspan3424-6"
       x="246.70668"
       y="251.20294"
       style="font-size:11.19999981px">Isothermal 600K</tspan></text>
  <text
     xml:space="preserve"
     style="font-size:20px;font-style:normal;font-variant:normal;font-weight:normal;font-stretch:normal;text-align:center;line-height:125%;letter-spacing:0px;word-spacing:0px;text-anchor:middle;fill:#000000;fill-opacity:1;stroke:none;font-family:Arial;-inkscape-font-specification:Sans"
     x="312.13071"
     y="103.48771"
     id="text4730"
     sodipodi:linespacing="125%"
     transform="scale(0.8,0.8)"><tspan
       sodipodi:role="line"
       id="tspan4732"
       x="312.13071"
       y="103.48771" /></text>
  <text
     xml:space="preserve"
     style="font-size:16px;font-style:normal;font-variant:normal;font-weight:normal;font-stretch:normal;text-align:center;line-height:125%;letter-spacing:0px;word-spacing:0px;text-anchor:middle;fill:#000000;fill-opacity:1;stroke:none;font-family:Arial;-inkscape-font-specification:Sans"
     x="263.1055"
     y="80.32148"
     id="text3422-2"
     sodipodi:linespacing="125%"><tspan
       sodipodi:role="line"
       id="tspan3424-5"
       x="263.1055"
       y="80.32148"
       style="font-size:11.19999981px">Reloading approaches</tspan><tspan
       sodipodi:role="line"
       x="263.1055"
       y="94.32148"
       style="font-size:11.19999981px"
       id="tspan4767">slope of RT, not value</tspan></text>
  <text
     xml:space="preserve"
     style="font-size:16px;font-style:normal;font-variant:normal;font-weight:normal;font-stretch:normal;text-align:center;line-height:125%;letter-spacing:0px;word-spacing:0px;text-anchor:middle;fill:#000000;fill-opacity:1;stroke:none;font-family:Arial;-inkscape-font-specification:Sans"
     x="110.56034"
     y="188.49664"
     id="text4769"
     sodipodi:linespacing="125%"><tspan
       sodipodi:role="line"
       id="tspan4771"
       x="110.56034"
       y="188.49664"
       style="font-size:11.19999981px">Strain rate &quot;jog&quot;</tspan></text>
  <path
     style="fill:none;stroke:#000000;stroke-width:0.80000001;stroke-linecap:butt;stroke-linejoin:miter;stroke-miterlimit:4;stroke-opacity:1;stroke-dasharray:none;marker-start:url(#Arrow1Lstart)"
     d="M 92.493164,211.95701 107.05477,190.38427"
     id="path3420-8-3"
     inkscape:connector-curvature="0"
     sodipodi:nodetypes="cc" />
  <text
     xml:space="preserve"
     style="font-size:16px;font-style:normal;font-variant:normal;font-weight:normal;font-stretch:normal;text-align:center;line-height:125%;letter-spacing:0px;word-spacing:0px;text-anchor:middle;fill:#000000;fill-opacity:1;stroke:none;font-family:Arial;-inkscape-font-specification:Sans"
     x="220.5677"
     y="293.86292"
     id="text4769-3"
     sodipodi:linespacing="125%"><tspan
       sodipodi:role="line"
       id="tspan4771-0"
       x="220.5677"
       y="293.86292"
       style="font-size:11.19999981px">Thermal contraction</tspan></text>
  <path
     style="fill:none;stroke:#000000;stroke-width:0.80000001;stroke-linecap:butt;stroke-linejoin:miter;stroke-miterlimit:4;stroke-opacity:1;stroke-dasharray:none;marker-start:url(#Arrow1Lstart)"
     d="m 160.98664,322.24768 24.26934,-26.42661"
     id="path3420-8-3-6"
     inkscape:connector-curvature="0"
     sodipodi:nodetypes="cc" />
</svg>
